<?xml version="1.0" standalone="no"?>
<!DOCTYPE svg PUBLIC "-//W3C//DTD SVG 20010904//EN"
 "http://www.w3.org/TR/2001/REC-SVG-20010904/DTD/svg10.dtd">
<svg version="1.0" xmlns="http://www.w3.org/2000/svg"
 width="700.000000pt" height="700.000000pt" viewBox="0 0 700.000000 700.000000"
 preserveAspectRatio="xMidYMid meet">
<metadata>
Created by potrace 1.14, written by Peter Selinger 2001-2017
</metadata>
<g transform="translate(0.000000,700.000000) scale(0.100000,-0.100000)"
fill="#000000" stroke="none">
<path d="M3037 6178 c-9 -5 -12 -151 -11 -600 1 -326 4 -626 8 -665 3 -40 8
-106 11 -145 3 -40 7 -102 10 -138 3 -36 7 -99 10 -140 4 -41 8 -97 10 -125 2
-27 7 -88 10 -135 3 -47 7 -114 10 -150 3 -36 7 -94 10 -130 3 -36 7 -98 10
-137 3 -40 7 -101 9 -135 3 -35 8 -99 11 -143 3 -44 8 -108 10 -142 3 -35 7
-91 10 -125 2 -35 7 -99 10 -143 3 -44 8 -105 10 -135 2 -30 7 -93 10 -140 3
-47 8 -110 10 -140 3 -30 7 -84 9 -120 14 -212 18 -268 21 -290 2 -14 4 -44 4
-67 l1 -42 275 -1 275 -1 1 28 c0 16 2 46 3 68 2 22 6 90 10 150 4 61 9 126
11 145 2 19 7 80 10 135 3 55 7 120 10 145 2 25 7 90 10 145 3 55 8 127 11
160 3 33 7 92 9 130 2 39 6 104 10 145 3 41 8 104 10 140 2 36 7 101 10 145 6
82 11 154 20 285 3 41 8 109 11 150 3 41 7 103 9 137 5 86 15 227 20 288 2 28
7 95 11 150 3 55 8 116 11 135 2 19 6 322 8 673 3 585 2 637 -14 638 -67 5
-915 3 -924 -3z"/>
<path d="M3105 1610 l-50 -5 0 -392 c0 -253 4 -394 10 -396 9 -3 828 -1 866 2
14 1 15 45 15 396 l0 395 -140 0 c-78 0 -256 2 -396 3 -140 1 -277 0 -305 -3z"/>
</g>
</svg>
